PathFileType	4	(X/Y/Z)	 s11c0401.trc
DataRate	CameraRate	NumFrames	NumMarkers	Units	OrigDataRate	OrigDataStartFrame	OrigNumFrames
200	200	4	48	mm	200	1	2000
Frame#	Time	racr			lacr			c7			jug			rlel			rdr			llel			ldr			s2			lic			ric			lasi			rasi			rpsi			lpsi			rgt			lgt			rth1			rth2			rth3			rth4			rlfc			rmfc			rsh1			rsh2			rsh3			rsh4			rlmal			rcal			rtoe			rmt5			lth1			lth2			lth4			lth3			llfc			lmfc			llmal			lcal			lmt5			lsh1			lsh2			lsh3			lsh4			ltoe			SBIKE			LBIKE			RBIKE			
		X1	Y1	Z1	X2	Y2	Z2	X3	Y3	Z3	X4	Y4	Z4	X5	Y5	Z5	X6	Y6	Z6	X7	Y7	Z7	X8	Y8	Z8	X9	Y9	Z9	X10	Y10	Z10	X11	Y11	Z11	X12	Y12	Z12	X13	Y13	Z13	X14	Y14	Z14	X15	Y15	Z15	X16	Y16	Z16	X17	Y17	Z17	X18	Y18	Z18	X19	Y19	Z19	X20	Y20	Z20	X21	Y21	Z21	X22	Y22	Z22	X23	Y23	Z23	X24	Y24	Z24	X25	Y25	Z25	X26	Y26	Z26	X27	Y27	Z27	X28	Y28	Z28	X29	Y29	Z29	X30	Y30	Z30	X31	Y31	Z31	X32	Y32	Z32	X33	Y33	Z33	X34	Y34	Z34	X35	Y35	Z35	X36	Y36	Z36	X37	Y37	Z37	X38	Y38	Z38	X39	Y39	Z39	X40	Y40	Z40	X41	Y41	Z41	X42	Y42	Z42	X43	Y43	Z43	X44	Y44	Z44	X45	Y45	Z45	X46	Y46	Z46	X47	Y47	Z47	X48	Y48	Z48	
1	0.0050	462.715693	1440.926600	-85.942307	475.061698	1478.644628	-418.913632	380.126114	1547.814596	-257.284812	439.377583	1380.349862	-260.422073	569.447834	1190.723603	-14.745151	761.555692	958.677933	-40.669091	NaN	NaN	NaN	767.090532	948.630312	-453.570748	-111.762156	1203.167523	-246.328121	105.263547	1217.837152	-453.740437	110.100914	1227.947684	-56.664667	142.755888	1143.649319	-426.370217	132.958857	1163.646062	-94.541959	-70.860987	1279.315231	-198.364449	-75.213615	1270.052349	-294.395207	72.276603	1090.390747	-30.079937	10.488379	1078.677103	-454.972922	202.720713	1028.136442	-28.586325	290.782146	1021.027175	-40.015888	360.728837	969.943224	-52.384761	302.277611	1053.964304	-52.870286	458.867051	915.989655	-71.015615	457.359458	900.086326	-204.645065	356.068689	797.204513	-64.272929	309.103717	725.060076	-84.919244	232.892739	683.055416	-86.635473	325.376767	711.029732	-118.248720	124.317917	606.284574	-100.541315	58.034170	618.427510	-149.283751	293.845706	456.214861	-136.257861	218.339331	466.391930	-68.628677	87.614452	948.378062	-471.524478	140.761026	882.311621	-462.744062	174.962898	896.234313	-457.706616	153.633160	794.096161	-449.826035	209.431219	666.939211	-420.523247	221.536184	660.253499	-293.008896	170.383664	231.586227	-404.274115	126.965795	174.194456	-372.812967	334.750445	173.660077	-442.144885	188.524617	539.954523	-442.247331	209.066701	456.709838	-430.245033	185.923634	371.508194	-427.529592	239.862881	458.479264	-407.143098	421.125453	221.351943	-373.050396	-204.969930	959.100995	-261.639897	1.117009	82.603859	-460.781397	-15.318604	81.036567	-62.504388	
2	0.0100	462.637572	1441.017315	-86.006311	475.028089	1478.649155	-418.807172	380.033342	1547.946372	-257.260902	439.317800	1380.446324	-260.401754	569.520846	1190.899042	-15.163186	761.715857	958.771003	-40.716801	NaN	NaN	NaN	767.192678	948.680850	-453.527948	-111.823675	1203.222435	-246.330242	105.308178	1217.894584	-453.788271	110.132173	1228.003625	-56.698095	142.733075	1143.684829	-426.351151	132.963070	1163.702590	-94.587643	-70.873696	1279.354043	-198.376790	-75.215266	1270.081886	-294.405314	72.273800	1090.469464	-30.124922	10.432691	1078.727095	-455.009590	202.738603	1028.157051	-28.623087	290.779766	1021.033728	-40.097942	360.732035	969.943972	-52.454204	302.291290	1053.960167	-52.972159	458.870719	915.946458	-71.099855	457.314737	899.995738	-204.690044	356.031119	797.150456	-64.303967	309.128765	725.015921	-84.946852	232.924437	682.966135	-86.676577	325.349022	710.979575	-118.274585	124.286243	606.258068	-100.549572	57.954398	618.431429	-149.264274	293.801280	456.180895	-136.258599	218.275783	466.364518	-68.629452	87.545862	948.450490	-471.524426	140.674617	882.371131	-462.786547	174.877492	896.280161	-457.771422	153.523731	794.146203	-449.901017	209.307661	666.943107	-420.555849	221.445609	660.283713	-293.039103	170.397710	231.606790	-404.260114	126.995599	174.224775	-372.801805	334.787603	173.694366	-442.144649	188.448140	539.955425	-442.251593	209.032483	456.701656	-430.244271	185.897956	371.534900	-427.523583	239.830523	458.500849	-407.172530	421.148185	221.388152	-373.073959	-204.965253	959.095527	-261.643934	1.090787	82.670804	-460.741986	-15.258953	81.109753	-62.587259	
3	0.0150	462.559114	1441.106423	-86.072516	475.046230	1478.656623	-418.730588	379.981431	1548.078598	-257.245431	439.257605	1380.549799	-260.360700	569.567885	1191.085186	-15.467145	761.852600	958.859116	-40.816632	NaN	NaN	NaN	767.249907	948.735374	-453.423582	-111.799083	1203.229339	-246.370692	105.261744	1217.920960	-453.657704	110.102151	1228.093131	-56.719786	142.737652	1143.770675	-426.329071	132.982470	1163.733660	-94.633384	-70.869266	1279.376163	-198.420936	-75.238670	1270.091201	-294.431207	72.274830	1090.534848	-30.137720	10.412410	1078.783434	-455.025393	202.743818	1028.171953	-28.682876	290.796165	1021.034613	-40.160231	360.738873	969.937573	-52.510062	302.295648	1053.961320	-53.064534	458.869244	915.931461	-71.152933	457.310414	899.916316	-204.770284	356.043837	797.112604	-64.356115	309.125185	724.957948	-84.976602	232.912329	682.942971	-86.702526	325.313259	710.943868	-118.328358	124.234557	606.232592	-100.543191	57.942144	618.411566	-149.268576	293.767314	456.147551	-136.252816	218.242354	466.348722	-68.642590	87.497524	948.520952	-471.518918	140.596497	882.409925	-462.822510	174.828427	896.301357	-457.827447	153.430221	794.175299	-449.904536	209.187596	666.931713	-420.558957	221.355940	660.327357	-293.049003	170.414138	231.628593	-404.247761	127.038946	174.245547	-372.776855	334.817432	173.725674	-442.123197	188.374396	539.944428	-442.202431	208.986713	456.722374	-430.239203	185.881947	371.571219	-427.480990	239.804229	458.501617	-407.140021	421.191156	221.424894	-373.074736	-204.970355	959.097975	-261.642301	1.105518	82.654433	-460.731453	-15.335499	81.026137	-62.510329	
4	0.0200	462.488606	1441.213918	-86.157402	475.056167	1478.656734	-418.662743	379.894899	1548.189920	-257.168879	439.177161	1380.657976	-260.317149	569.627575	1191.225521	-15.676493	761.982513	958.945586	-40.946759	NaN	NaN	NaN	767.349524	948.806463	-453.186741	-111.827081	1203.238662	-246.400394	105.332821	1217.991431	-453.714839	109.325144	1228.230948	-56.747533	142.731429	1143.867501	-426.286976	132.985272	1163.783518	-94.671043	-70.196296	1278.990473	-199.000919	-75.706180	1270.477748	-292.619545	72.061967	1090.630239	-30.165683	10.391356	1078.824101	-455.042769	202.787955	1028.290175	-28.747498	290.834596	1021.037780	-40.224399	360.940083	970.409470	-52.317820	302.306973	1053.976427	-53.148919	458.899537	915.912498	-71.200302	457.339120	899.842945	-204.818246	356.067645	797.093126	-64.379350	309.563436	724.975582	-84.779974	232.906781	682.690620	-86.575331	328.112900	711.476124	-117.574471	124.230765	606.224823	-100.536414	57.928662	618.408940	-149.262450	293.735533	456.124058	-136.250110	218.204540	466.321140	-68.644309	87.466013	948.572749	-471.508145	140.549841	882.445899	-462.844132	174.707679	896.462771	-457.872418	153.255908	794.209444	-450.045208	209.075024	666.931405	-420.550474	221.227088	660.346486	-293.039987	170.452254	231.587131	-404.296918	127.074174	174.262727	-372.739082	334.835558	173.761038	-442.146398	188.319471	539.978629	-442.154785	208.935998	456.732618	-430.189173	185.853561	371.587472	-427.440627	239.786508	458.613879	-407.250214	421.223809	221.446885	-373.074631	-205.191303	959.278308	-262.457869	1.098799	82.657652	-460.729325	-15.335562	81.039192	-62.508899	
